<svg id="Livello_101" data-name="Livello 101" xmlns="http://www.w3.org/2000/svg" viewBox="0 0 19.99 20.02"><defs><style>.cls-1{fill:#fff;}</style></defs><title>Oggetto vettoriale avanzato35</title><polygon class="cls-1" points="1.91 16.92 3.04 18.04 6.24 15.4 4.52 13.67 1.91 16.92"/><path class="cls-1" d="M33.37,15l-.46-.46a1.87,1.87,0,0,0-2.61,0l-5,5c-.6.6-1.16,1.23-1.73,1.9L19.8,26.12l2,2,4.69-3.84a17.54,17.54,0,0,0,1.9-1.73l5-5A1.8,1.8,0,0,0,33.37,15Z" transform="translate(-13.98 -14)"/><path class="cls-1" d="M34,30.25A3.7,3.7,0,0,0,33.15,28a3.33,3.33,0,0,0,.07,4.51A3.73,3.73,0,0,0,34,30.25Z" transform="translate(-13.98 -14)"/><path class="cls-1" d="M26.49,30.25a3.5,3.5,0,0,0,.7,2.15,3.4,3.4,0,0,0,.88-2.26A3.31,3.31,0,0,0,27.27,28,3.87,3.87,0,0,0,26.49,30.25Z" transform="translate(-13.98 -14)"/><path class="cls-1" d="M31.07,30.14a4.62,4.62,0,0,1,1.16-3,3.84,3.84,0,0,0-2-.6,3.6,3.6,0,0,0-2,.63,4.57,4.57,0,0,1,1.13,3,4.78,4.78,0,0,1-1.23,3.14,3.73,3.73,0,0,0,2.15.7,3.93,3.93,0,0,0,2.11-.63A4.75,4.75,0,0,1,31.07,30.14Z" transform="translate(-13.98 -14)"/><rect class="cls-1" x="14.91" y="31.04" width="1.04" height="3.06" transform="translate(-32.49 6.45) rotate(-45)"/></svg>