<?xml version="1.0" standalone="no"?>
<!DOCTYPE svg PUBLIC "-//W3C//DTD SVG 20010904//EN"
 "http://www.w3.org/TR/2001/REC-SVG-20010904/DTD/svg10.dtd">
<svg version="1.0" xmlns="http://www.w3.org/2000/svg"
 width="1280.000000pt" height="716.000000pt" viewBox="0 0 1280.000000 716.000000"
 preserveAspectRatio="xMidYMid meet">
<metadata>
Created by potrace 1.15, written by Peter Selinger 2001-2017
</metadata>
<g transform="translate(0.000000,716.000000) scale(0.100000,-0.100000)"
fill="#000000" stroke="none">
<path d="M4339 7133 c-40 -21 -61 -40 -84 -77 l-30 -49 0 -2791 0 -2791 28
-47 c29 -51 63 -78 116 -96 25 -9 1067 -12 4146 -12 l4111 0 55 27 c40 21 61
40 84 77 l30 49 3 2781 c1 1530 0 2796 -3 2814 -8 42 -59 100 -110 123 -38 18
-197 19 -4166 19 l-4125 0 -55 -27z m8131 -2893 l0 -2580 -3940 0 -3940 0 0
2580 0 2580 3940 0 3940 0 0 -2580z m-3900 -2655 c15 -8 38 -27 49 -41 39 -50
21 -157 -30 -185 -70 -37 -130 -28 -178 27 -92 105 34 264 159 199z"/>
<path d="M1492 2983 c-18 -9 -43 -30 -55 -47 l-22 -31 -3 -1396 -2 -1396 22
-33 c13 -18 36 -43 51 -54 28 -21 31 -21 1094 -24 1054 -2 1067 -2 1107 18 23
11 50 33 61 48 20 27 20 45 23 1428 l2 1401 -22 33 c-13 18 -39 41 -58 51 -33
18 -82 19 -1100 19 -961 0 -1068 -2 -1098 -17z m2118 -1458 l0 -1225 -1020 0
-1020 0 0 1225 0 1225 1020 0 1020 0 0 -1225z m-987 -1284 c68 -26 92 -117 43
-166 -92 -91 -234 28 -155 129 33 42 69 53 112 37z m-630 -59 c37 -33 9 -102
-42 -102 -48 0 -78 41 -61 85 16 43 63 51 103 17z m1200 0 c37 -32 8 -102 -44
-102 -31 0 -69 30 -69 56 0 25 20 55 43 63 25 9 44 5 70 -17z"/>
<path d="M71 1654 c-58 -49 -59 -60 -67 -809 -6 -614 -5 -686 10 -737 11 -38
26 -65 47 -82 l31 -26 393 0 393 0 29 24 c16 14 35 42 41 64 9 29 12 237 12
761 0 783 1 765 -55 809 -27 22 -33 22 -416 22 l-387 0 -31 -26z m549 -154
c22 -17 41 -20 168 -20 l142 0 0 -665 0 -665 -440 0 -440 0 0 665 0 665 138 0
c120 0 141 3 167 20 25 17 47 20 135 20 89 0 109 -3 130 -20z m-106 -1386 c19
-18 21 -65 4 -82 -17 -17 -54 -15 -72 4 -21 20 -20 53 1 76 20 22 46 23 67 2z"/>
<path d="M7861 818 c-89 -400 -108 -458 -181 -540 -86 -99 -207 -154 -363
-166 -85 -7 -92 -9 -106 -33 -13 -24 -13 -29 2 -53 l17 -26 1275 0 c1272 0
1275 0 1296 21 22 22 19 55 -7 75 -8 6 -48 14 -88 18 -201 18 -365 122 -439
279 -18 38 -55 185 -109 427 l-83 370 -565 0 -565 0 -84 -372z"/>
</g>
</svg>
