<?xml version="1.0" encoding="iso-8859-1"?><!-- Generator: Adobe Illustrator 21.1.0, SVG Export Plug-In . SVG Version: 6.00 Build 0)  --><svg xmlns="http://www.w3.org/2000/svg" xmlns:xlink="http://www.w3.org/1999/xlink" viewBox="0 0 50 50" width="50px" height="50px"><g><path style="fill:none;stroke:#000000;stroke-width:2;stroke-linecap:round;stroke-linejoin:round;stroke-miterlimit:10;" d="M45.923,18.202C42.169,6.647,29.757,0.322,18.202,4.077S0.323,20.244,4.077,31.798s16.167,17.879,27.722,14.125C43.353,42.169,49.677,29.756,45.923,18.202L45.923,18.202z"/></g><line style="fill:none;stroke:#000000;stroke-width:2;stroke-linecap:round;stroke-linejoin:round;stroke-miterlimit:10;" x1="25.025" y1="7.023" x2="25.025" y2="16.011"/><polygon points="25,15 15.537,21.875 19.151,33 30.849,33 34.463,21.875 "/><polygon points="18.536,3.967 25,8 31.464,3.967 25.092,2.705 "/><line style="fill:none;stroke:#000000;stroke-width:2;stroke-linecap:round;stroke-linejoin:round;stroke-miterlimit:10;" x1="8.223" y1="19.525" x2="16.163" y2="22.081"/><polygon points="2.999,24.648 8.832,19.747 6.994,12.353 4.016,17.718 "/><line style="fill:none;stroke:#000000;stroke-width:2;stroke-linecap:round;stroke-linejoin:round;stroke-miterlimit:10;" x1="14.587" y1="39.29" x2="19.755" y2="32.173"/><polygon points="17.866,45.815 15.008,38.753 7.408,38.217 11.561,42.709 "/><line style="fill:none;stroke:#000000;stroke-width:2;stroke-linecap:round;stroke-linejoin:round;stroke-miterlimit:10;" x1="35.683" y1="39.746" x2="30.114" y2="31.973"/><polygon points="42.592,38.217 34.992,38.753 32.134,45.815 37.534,42.819 "/><line style="fill:none;stroke:#000000;stroke-width:2;stroke-linecap:round;stroke-linejoin:round;stroke-miterlimit:10;" x1="42.565" y1="19.319" x2="33.489" y2="22.193"/><polygon points="43.006,12.353 41.168,19.747 47.001,24.648 45.971,18.17 "/></svg>