<?xml version="1.0" encoding="iso-8859-1"?><!-- Generator: Adobe Illustrator 21.1.0, SVG Export Plug-In . SVG Version: 6.00 Build 0)  --><svg xmlns="http://www.w3.org/2000/svg" xmlns:xlink="http://www.w3.org/1999/xlink" viewBox="0 0 50 50" width="50px" height="50px"><line style="fill:none;stroke:#000000;stroke-width:2;stroke-linecap:round;stroke-miterlimit:10;" x1="18" y1="32" x2="32" y2="18"/><line style="fill:none;stroke:#000000;stroke-width:2;stroke-linecap:round;stroke-linejoin:round;stroke-miterlimit:10;" x1="26" y1="18" x2="32" y2="24"/><g><circle cx="25.5" cy="17.5" r="1.5"/></g><g><circle cx="32.5" cy="24.5" r="1.5"/></g><line style="fill:none;stroke:#000000;stroke-width:2;stroke-linecap:round;stroke-linejoin:round;stroke-miterlimit:10;" x1="22" y1="22" x2="28" y2="28"/><g><circle cx="21.5" cy="21.5" r="1.5"/></g><g><circle cx="28.5" cy="28.5" r="1.5"/></g><line style="fill:none;stroke:#000000;stroke-width:2;stroke-linecap:round;stroke-linejoin:round;stroke-miterlimit:10;" x1="18" y1="26" x2="24" y2="32"/><g><circle cx="17.5" cy="25.5" r="1.5"/></g><g><circle cx="24.5" cy="32.5" r="1.5"/></g><g><g><path style="fill:none;stroke:#000000;stroke-width:2;stroke-linecap:round;stroke-linejoin:round;stroke-miterlimit:10;" d="M35.415,4C28.815,4,20,6.781,13.397,13.384C3.127,23.656,2.073,39.254,6.409,43.59C7.956,45.14,10.941,46,14.606,46c6.599,0,15.405-2.793,22.009-9.396c10.273-10.272,11.294-25.899,6.989-30.206C42.065,4.858,39.083,4,35.415,4L35.415,4z"/></g></g></svg>