<svg id="basketball" xmlns="http://www.w3.org/2000/svg" viewBox="0 0 19.89 19.89"><defs><style>.cls-1{fill:#fff;}</style></defs><title>basketball</title><path class="cls-1" d="M19.48,23a13.25,13.25,0,0,0-1.36-5.12,12,12,0,0,0-.77-1.33A10,10,0,0,0,14.05,23h5.42Z" transform="translate(-14.05 -14.06)"/><path class="cls-1" d="M15.56,25H14.05a10,10,0,0,0,3.2,6.36A11.94,11.94,0,0,0,18,30a13.19,13.19,0,0,0,1.42-5Z" transform="translate(-14.05 -14.06)"/><path class="cls-1" d="M28.76,17a13.43,13.43,0,0,1,.77-1.27A9.93,9.93,0,0,0,25,14.06V23h2A14.64,14.64,0,0,1,28.76,17Z" transform="translate(-14.05 -14.06)"/><path class="cls-1" d="M19.31,16.92A14.67,14.67,0,0,1,21,23h2V14.08a9.92,9.92,0,0,0-4.47,1.55A13.44,13.44,0,0,1,19.31,16.92Z" transform="translate(-14.05 -14.06)"/><path class="cls-1" d="M19.22,31a13.35,13.35,0,0,1-.8,1.28A9.94,9.94,0,0,0,23,33.94V25H21A14.62,14.62,0,0,1,19.22,31Z" transform="translate(-14.05 -14.06)"/><path class="cls-1" d="M32.44,23h1.51a10,10,0,0,0-3.23-6.39,12,12,0,0,0-.78,1.32A13.22,13.22,0,0,0,28.56,23Z" transform="translate(-14.05 -14.06)"/><path class="cls-1" d="M28.56,25a13.22,13.22,0,0,0,1.38,5.07,12,12,0,0,0,.78,1.32A10,10,0,0,0,33.95,25H28.56Z" transform="translate(-14.05 -14.06)"/><path class="cls-1" d="M27,25H25v8.94a10,10,0,0,0,4.54-1.62A13.41,13.41,0,0,1,28.76,31,14.64,14.64,0,0,1,27,25Z" transform="translate(-14.05 -14.06)"/></svg>